<?xml version="1.0" standalone="no"?><!DOCTYPE svg PUBLIC "-//W3C//DTD SVG 1.1//EN" "http://www.w3.org/Graphics/SVG/1.1/DTD/svg11.dtd"><svg t="1552985456841" class="icon" style="" viewBox="0 0 1024 1024" version="1.1" xmlns="http://www.w3.org/2000/svg" p-id="2538" xmlns:xlink="http://www.w3.org/1999/xlink" width="64" height="64"><defs><style type="text/css"></style></defs><path d="M733.17376 201.92768c-52.1984 0-94.52032 42.33728-94.52032 94.52032 0 9.05728 1.35168 17.80736 3.72736 26.10176L366.04928 438.3744c-16.33792-28.30336-46.848-47.40096-81.85344-47.40096-52.18816 0-94.52032 42.33728-94.52032 94.52544 0 52.1984 42.33728 94.52032 94.52032 94.52032 27.34592 0 51.92192-11.68384 69.18656-30.26432l178.06336 127.9744a93.98784 93.98784 0 0 0-10.94144 44.06272c0 52.20864 42.33728 94.53568 94.52544 94.53568 52.18304 0 94.52032-42.32704 94.52032-94.53568 0-52.18816-42.33728-94.51008-94.52032-94.51008-27.76576 0-52.66432 12.05248-69.95968 31.11936l-177.8176-127.76448a93.98272 93.98272 0 0 0 11.4688-45.13792c0-8.7808-1.29024-17.24928-3.52768-25.32864l276.54144-115.9168c16.41984 27.92448 46.70976 46.73024 81.44896 46.73024 52.1984 0 94.52544-42.32192 94.52544-94.53568-0.01024-52.18304-42.33216-94.52032-94.53568-94.52032z m-118.14912 448.98816c39.0912 0 70.89152 31.80032 70.89152 70.88128 0 39.09632-31.80032 70.90688-70.89152 70.90688-39.09632 0-70.89664-31.81056-70.89664-70.90688 0-39.08096 31.80032-70.88128 70.89664-70.88128zM284.19072 556.3904c-39.0912 0-70.89152-31.80032-70.89152-70.89152s31.80032-70.89152 70.89152-70.89152 70.89152 31.80032 70.89152 70.89152c0.00512 39.0912-31.7952 70.89152-70.89152 70.89152z m448.98304-189.0304c-39.0912 0-70.89152-31.81056-70.89152-70.90688s31.80032-70.89152 70.89152-70.89152c39.09632 0 70.89664 31.80032 70.89664 70.89152s-31.80032 70.90688-70.89664 70.90688z" fill="#1C2021" p-id="2539"></path></svg>