<?xml version="1.0" standalone="no"?><!DOCTYPE svg PUBLIC "-//W3C//DTD SVG 1.1//EN" "http://www.w3.org/Graphics/SVG/1.1/DTD/svg11.dtd"><svg t="1553221731454" class="icon" style="" viewBox="0 0 1024 1024" version="1.1" xmlns="http://www.w3.org/2000/svg" p-id="1318" xmlns:xlink="http://www.w3.org/1999/xlink" width="128" height="128"><defs><style type="text/css"></style></defs><path d="M885.050027 265.03168c-54.756693-22.347093-117.271893 3.918507-139.63264 58.68544-22.347093 54.75328 3.915093 117.25824 58.678613 139.615573 54.749867 22.36416 117.26848-3.91168 139.625813-58.66496 22.357333-54.75328-3.918507-117.275307-58.671786-139.636053z m9.366186 153.156267c-8.055467 19.712-29.436587 29.71648-47.796906 22.213973-5.717333-2.331307-10.625707-6.23616-14.434987-11.277653-5.50912-7.492267-8.000853-16.923307-7.038293-26.678614 0.31744-2.737493 0.7168-4.478293 1.3824-6.109866a7.2704 7.2704 0 0 1 9.570986-4.02432 7.2704 7.2704 0 0 1 4.027734 9.581226c-0.109227 0.279893-0.33792 0.822613-0.33792 1.60768-0.617813 6.57408 0.897707 12.58496 4.194986 16.93696a18.643627 18.643627 0 0 0 8.192 6.362454c10.738347 4.389547 23.63392-1.93536 28.634454-14.175574a26.405547 26.405547 0 0 0 1.754453-13.243733c-1.058133-7.891627-5.618347-14.199467-12.284587-16.923307l-56.859306-23.207253c-11.557547-4.713813-19.561813-15.438507-21.213867-28.494507-1.1264-6.959787-0.146773-14.0288 2.522453-20.548266 8.052053-19.729067 29.426347-29.719893 47.79008-22.227627 5.70368 2.338133 10.622293 6.23616 14.431574 11.277653 5.512533 7.492267 8.011093 16.923307 7.041706 26.688854-0.259413 2.59072-0.70656 4.471467-1.389226 6.099626a7.256747 7.256747 0 0 1-9.570987 4.02432 7.284053 7.284053 0 0 1-4.02432-9.58464c0.109227-0.26624 0.334507-0.805547 0.341333-1.600853 0.75776-6.509227-0.754347-12.526933-4.191573-16.9472a18.578773 18.578773 0 0 0-8.198827-6.355627c-10.738347-4.386133-23.63392 1.931947-28.573013 14.03904a26.51136 26.51136 0 0 0-1.768107 13.243734c1.06496 7.89504 5.635413 14.199467 12.294827 16.909653l56.999253 23.27552c11.56096 4.717227 19.551573 15.445333 21.21728 28.494507a40.54016 40.54016 0 0 1-2.7136 20.64384zM540.4672 412.972373c54.76352 22.357333 81.025707 84.875947 58.668373 139.63264-22.360747 54.756693-84.86912 81.01888-139.625813 58.668374-54.760107-22.347093-81.022293-84.865707-58.671787-139.6224 22.350507-54.76352 84.86912-81.035947 139.629227-58.678614zM658.944 830.938453c18.10432 7.400107 26.78784 28.074667 19.39456 46.17216-7.38304 18.1248-28.064427 26.794667-46.17216 19.411627-18.107733-7.389867-26.79808-28.06784-19.397973-46.175573 7.386453-18.107733 28.06784-26.794667 46.175573-19.408214zM414.98624 710.150827a22.6304 22.6304 0 0 1 12.393813 29.4912l-40.321706 98.751146a22.62016 22.62016 0 0 1-41.874774-17.097386l40.318294-98.75456c4.713813-11.564373 17.92-17.1008 29.484373-12.3904zM630.5792 184.30976a22.626987 22.626987 0 0 1 12.393813 29.4912L602.658133 312.552107a22.613333 22.613333 0 0 1-29.487786 12.383573 22.60992 22.60992 0 0 1-12.383574-29.477547l40.318294-98.757973a22.606507 22.606507 0 0 1 29.474133-12.3904zM476.22144 159.699627l-4.4544 90.446506-0.805547 16.083627-4.46464 90.443093a22.606507 22.606507 0 0 0 21.466454 23.698774 22.616747 22.616747 0 0 0 23.709013-21.466454l4.46464-90.443093 0.78848-16.09728 4.468053-90.453333a22.6304 22.6304 0 0 0-21.469866-23.698774 22.6304 22.6304 0 0 0-23.702187 21.486934zM565.111467 344.68864a17.93024 17.93024 0 0 1 9.816746 23.36768l-6.772053 16.5888a17.92 17.92 0 0 1-23.360853 9.816747 17.92 17.92 0 0 1-9.82016-23.36768l6.77888-16.5888a17.916587 17.916587 0 0 1 23.35744-9.816747zM364.475733 380.910933a17.902933 17.902933 0 0 1 25.30304-1.324373l13.32224 11.9808a17.933653 17.933653 0 0 1 1.32096 25.31328 17.916587 17.916587 0 0 1-25.31328 1.314133l-13.318826-11.99104a17.906347 17.906347 0 0 1-1.314134-25.2928zM446.696107 632.466773a17.926827 17.926827 0 0 1 9.823573 23.371094l-6.782293 16.581973a17.913173 17.913173 0 0 1-23.360854 9.816747 17.90976 17.90976 0 0 1-9.82016-23.35744l6.782294-16.602454a17.916587 17.916587 0 0 1 23.35744-9.80992zM619.820373 563.5584a17.916587 17.916587 0 0 1 23.371094-9.813333l16.585386 6.765226a17.93024 17.93024 0 0 1 9.82016 23.374507 17.93024 17.93024 0 0 1-23.36768 9.813333l-16.595626-6.772053a17.926827 17.926827 0 0 1-9.813334-23.36768zM827.245227 622.226773a25.593173 25.593173 0 0 1 14.025386 33.378987 25.61024 25.61024 0 0 1-33.378986 14.025387l-113.3568-46.291627a25.565867 25.565867 0 0 1-14.01856-33.368747 25.586347 25.586347 0 0 1 33.368746-14.025386l113.360214 46.281386zM899.672747 651.79648a25.58976 25.58976 0 0 1 14.025386 33.37216 25.6 25.6 0 0 1-33.378986 14.0288l-10.263894-4.1984a25.582933 25.582933 0 0 1-14.025386-33.37216 25.586347 25.586347 0 0 1 33.375573-14.021973l10.267307 4.191573zM319.064747 882.005333a23.84896 23.84896 0 0 1 44.15488 18.029227l-3.90144 9.567573a23.84896 23.84896 0 1 1-44.168534-18.018986l3.915094-9.577814zM288.467627 689.650347a23.845547 23.845547 0 0 1 33.437013-4.406614c10.451627 8.011093 12.414293 22.995627 4.410027 33.440427l-6.290774 8.195413a23.842133 23.842133 0 0 1-33.44384 4.396374 23.83872 23.83872 0 0 1-4.4032-33.4336l6.290774-8.192zM631.10144 119.958187a23.842133 23.842133 0 0 1 31.08864-13.059414 23.82848 23.82848 0 0 1 13.059413 31.085227l-3.898026 9.567573a23.8592 23.8592 0 0 1-31.092054 13.069654 23.842133 23.842133 0 0 1-13.062826-31.095467l3.904853-9.567573zM475.521707 94.098773a23.852373 23.852373 0 0 1 24.603306-23.07072 23.842133 23.842133 0 0 1 23.067307 24.603307l-0.334507 10.32192a23.852373 23.852373 0 0 1-24.603306 23.074133c-13.165227-0.433493-23.493973-11.44832-23.057067-24.60672l0.324267-10.32192zM359.144107 431.581867c14.390613 5.874347 21.292373 22.316373 15.42144 36.706986-5.874347 14.400853-22.326613 21.312853-36.717227 15.428267l-33.97632-13.86496a28.166827 28.166827 0 0 1-15.43168-36.72064 28.177067 28.177067 0 0 1 36.73088-15.42144l33.972907 13.871787zM362.82368 607.720107a23.88992 23.88992 0 0 1 33.600853-3.263147 23.872853 23.872853 0 0 1 3.259734 33.594027l-19.766614 24.02304a23.866027 23.866027 0 0 1-33.59744 3.24608 23.862613 23.862613 0 0 1-3.249493-33.594027l19.75296-24.005973zM244.773547 384.887467a26.661547 26.661547 0 0 1 14.609066 34.771626l-1.129813 2.768214c-5.556907 13.632853-21.13536 20.1728-34.7648 14.605653-13.632853-5.556907-20.1728-21.128533-14.615893-34.7648l1.13664-2.7648c5.567147-13.632853 21.128533-20.186453 34.7648-14.615893zM172.288 355.29728a28.14976 28.14976 0 0 1 15.428267 36.717227c-5.87776 14.404267-22.316373 21.2992-36.7104 15.43168l-40.290987-16.448854a28.173653 28.173653 0 0 1-15.43168-36.717226 28.14976 28.14976 0 0 1 36.72064-15.424854l40.28416 16.442027z" p-id="1319" fill="#e4230e"></path><path d="M722.578773 895.184213c-17.339733 42.468693-66.003627 62.91456-108.46208 45.571414-42.482347-17.329493-62.931627-65.993387-45.585066-108.465494 17.33632-42.472107 65.9968-62.917973 108.468906-45.58848 42.468693 17.34656 62.917973 66.000213 45.57824 108.48256z m-147.739306-60.3136c-15.91296 38.976853 2.85696 83.65056 41.85088 99.570347 38.99392 15.9232 83.65056-2.85696 99.580586-41.844053 15.899307-38.98368-2.863787-83.653973-41.86112-99.570347-38.98368-15.906133-83.657387 2.850133-99.570346 41.844053z" p-id="1320" fill="#e4230e"></path><path d="M352.64512 163.365547m-35.416747 0a35.416747 35.416747 0 1 0 70.833494 0 35.416747 35.416747 0 1 0-70.833494 0Z" p-id="1321" fill="#e4230e"></path><path d="M429.68064 194.812587c-17.339733 42.472107-66.010453 62.921387-108.485973 45.57824-42.461867-17.332907-62.921387-65.989973-45.57824-108.468907 17.339733-42.468693 66.003627-62.9248 108.475733-45.581653 42.47552 17.339733 62.917973 66.000213 45.58848 108.47232zM281.941333 134.498987c-15.9232 38.987093 2.850133 83.653973 41.837227 99.57376 38.987093 15.916373 83.6608-2.850133 99.57376-41.84064 15.91296-38.990507-2.853547-83.65056-41.844053-99.57376-38.98368-15.9232-83.653973 2.84672-99.566934 41.84064z" p-id="1322" fill="#e4230e"></path><path d="M160.218453 634.71616c18.10432 7.389867 26.794667 28.0576 19.397974 46.168747-7.389867 18.107733-28.0576 26.794667-46.165334 19.39456-18.117973-7.389867-26.801493-28.064427-19.408213-46.158507 7.396693-18.111147 28.06784-26.801493 46.175573-19.4048z" p-id="1323" fill="#e4230e"></path><path d="M223.85664 698.95168c-17.343147 42.468693-65.9968 62.917973-108.468907 45.581653-42.468693-17.343147-62.921387-66.003627-45.57824-108.479146C87.1424 593.578667 135.81312 573.1328 178.274987 590.472533c42.47552 17.33632 62.928213 66.000213 45.581653 108.479147zM76.120747 638.634667c-15.91296 38.99392 2.853547 83.664213 41.847466 99.570346 38.98368 15.930027 83.664213-2.84672 99.57376-41.8304 15.916373-39.000747-2.85696-83.6608-41.837226-99.584-38.99392-15.916373-83.653973 2.853547-99.584 41.844054z" p-id="1324" fill="#e4230e"></path><path d="M323.6864 580.072107a17.906347 17.906347 0 0 0 23.422293 9.642666l16.551254-6.89152a17.913173 17.913173 0 1 0-13.786454-33.071786l-16.541013 6.888106a17.913173 17.913173 0 0 0-9.64608 23.432534zM273.247573 744.250027a23.381333 23.381333 0 0 1 1.204907 33.068373l-55.360853 59.562667a23.405227 23.405227 0 0 1-34.290347-31.860054l55.374507-59.56608a23.3984 23.3984 0 0 1 33.071786-1.204906zM691.019093 406.08768a23.87968 23.87968 0 0 1 31.849814 11.267413 23.872853 23.872853 0 0 1-11.25376 31.842987l-43.902294 20.968107a23.86944 23.86944 0 0 1-31.842986-11.250347 23.88992 23.88992 0 0 1 11.25376-31.85664l43.895466-20.97152zM647.345493 326.372693a21.90336 21.90336 0 0 1 30.952107-1.245866 21.89312 21.89312 0 0 1 1.242453 30.952106l-55.01952 59.63776a21.906773 21.906773 0 0 1-30.948693 1.256107 21.9136 21.9136 0 0 1-1.245867-30.958933l55.01952-59.641174zM713.837227 254.306987a21.90336 21.90336 0 0 1 30.94528-1.256107 21.90336 21.90336 0 0 1 1.24928 30.948693l-18.261334 19.80416a21.906773 21.906773 0 0 1-32.2048-29.702826l18.271574-19.79392zM773.23264 189.91104a21.9136 21.9136 0 0 1 32.201387 29.709653l-13.257387 14.363307a21.896533 21.896533 0 0 1-30.948693 1.24928 21.89312 21.89312 0 0 1-1.252694-30.948693l13.257387-14.373547zM386.409813 310.31296a20.896427 20.896427 0 0 1 11.830614-27.09504 20.91008 20.91008 0 0 1 27.098453 11.823787l26.79808 68.32128a20.906667 20.906667 0 0 1-38.92224 15.26784l-26.804907-68.317867zM536.439467 669.7472a23.61344 23.61344 0 0 1 13.356373-30.614187 23.61344 23.61344 0 0 1 30.610773 13.356374l21.346987 54.41536a23.620267 23.620267 0 0 1-13.3632 30.6176 23.610027 23.610027 0 0 1-30.603947-13.359787l-21.346986-54.41536zM237.049173 283.859627a16.827733 16.827733 0 0 1 22.756694-24.784214l90.125653 82.735787a16.82432 16.82432 0 0 1-22.74304 24.79104L237.049173 283.859627zM588.547413 637.7984a22.17984 22.17984 0 0 1 0.382294-31.371947 22.176427 22.176427 0 0 1 31.37536 0.385707l61.067946 62.573227a22.176427 22.176427 0 0 1-0.385706 31.368533 22.173013 22.173013 0 0 1-31.371947-0.382293l-61.067947-62.573227zM691.452587 743.062187a22.060373 22.060373 0 0 1 0.382293-31.187627 22.050133 22.050133 0 0 1 31.19104 0.37888l30.518613 31.27296a22.063787 22.063787 0 0 1-0.385706 31.194453 22.05696 22.05696 0 0 1-31.19104-0.375466l-30.5152-31.2832zM777.274027 831.20128a22.19008 22.19008 0 0 0 31.371946 0.37888c8.768853-8.567467 8.946347-22.613333 0.37888-31.368533l-12.70784-13.032107a22.17984 22.17984 0 0 0-31.37536-0.382293 22.176427 22.176427 0 0 0-0.385706 31.371946l12.71808 13.032107zM335.09376 533.705387a16.78336 16.78336 0 0 1 0.18432-33.563307l13.93664 0.075093a16.78336 16.78336 0 0 1-0.177493 33.563307l-13.943467-0.075093zM157.965653 547.293867a27.7504 27.7504 0 0 1-27.5968-27.900587 27.746987 27.746987 0 0 1 27.897174-27.600213l119.391573 0.641706a27.753813 27.753813 0 0 1-0.300373 55.5008l-119.391574-0.641706zM68.939093 546.809173a24.05376 24.05376 0 0 1 0.259414-48.104106l9.0624 0.0512a24.050347 24.050347 0 0 1-0.262827 48.100693l-9.058987-0.047787zM669.064533 537.214293a19.4048 19.4048 0 0 0 19.514027-19.309226 19.408213 19.408213 0 0 0-19.3024-19.51744l-16.602453-0.088747a19.421867 19.421867 0 0 0-19.51744 19.309227 19.421867 19.421867 0 0 0 19.31264 19.51744l16.595626 0.088746zM775.144107 545.467733a27.09504 27.09504 0 0 0 27.241813-26.948266 27.101867 27.101867 0 0 0-26.95168-27.2384l-40.106667-0.221867a27.09504 27.09504 0 0 0-0.28672 54.186667l40.103254 0.221866zM920.337067 543.474347c13.428053 0.07168 24.388267-10.752 24.449706-24.18688a24.313173 24.313173 0 0 0-24.183466-24.449707l-69.546667-0.375467a24.313173 24.313173 0 0 0-24.45312 24.18688 24.316587 24.316587 0 0 0 24.190293 24.449707l69.543254 0.375467zM517.393067 711.601493a21.90336 21.90336 0 0 1-43.80672 0v-36.10624a21.899947 21.899947 0 0 1 21.90336-21.899946 21.899947 21.899947 0 0 1 21.90336 21.899946v36.10624zM517.393067 812.01152a19.909973 19.909973 0 0 1-19.909974 19.909973 19.90656 19.90656 0 0 1-19.909973-19.909973v-21.050027a19.909973 19.909973 0 1 1 39.819947 0v21.050027zM534.801067 928.74752a31.744 31.744 0 0 1-31.744 31.744 31.740587 31.740587 0 0 1-31.740587-31.744v-29.832533a31.744 31.744 0 0 1 63.484587 0v29.832533z" p-id="1325" fill="#e4230e"></path></svg>